<svg width="18" height="18" viewBox="0 0 18 18" fill="none" xmlns="http://www.w3.org/2000/svg">
<path d="M17.4208 2.07749C18.1916 2.84717 18.1916 4.09408 17.4208 4.86482L6.4158 15.8734C6.01459 16.2711 5.52188 16.5632 4.9799 16.7251L0.722178 17.978C0.52439 18.0343 0.310659 17.9815 0.164957 17.8337C0.0192419 17.6894 -0.0352589 17.4747 0.0229021 17.2776L1.27507 13.0192C1.4345 12.4772 1.72766 11.9845 2.12711 11.5833L13.1343 0.577184C13.905 -0.192395 15.1508 -0.192395 15.9216 0.577184L17.4208 2.07749ZM12.001 3.30222L14.6969 5.96638L16.6255 4.06944C16.9563 3.73862 16.9563 3.20368 16.6255 2.87392L15.1262 1.37361C14.7954 1.04385 14.2605 1.04385 13.9296 1.37361L12.001 3.30222ZM11.2056 4.0976L2.92354 12.3822C2.65712 12.6461 2.4618 12.9769 2.35551 13.3394L1.39473 16.6054L4.65964 15.6446C5.02213 15.539 5.35295 15.342 5.6169 15.0745L13.8698 6.79343L11.2056 4.0976Z" fill="black" fill-opacity="0.87"/>
</svg>
