<svg width="40" height="36" viewBox="0 0 40 36" fill="none" xmlns="http://www.w3.org/2000/svg">
<path d="M0 4.44444C0 1.98958 1.98958 0 4.44444 0H17.7778C20.2292 0 22.2222 1.98958 22.2222 4.44444V23.3333C22.2222 23.9444 21.7222 24.4444 21.1111 24.4444C20.5 24.4444 20 23.9444 20 23.3333V4.44444C20 3.21736 19.0069 2.22222 17.7778 2.22222H4.44444C3.21736 2.22222 2.22222 3.21736 2.22222 4.44444V17.7778H10C10.6111 17.7778 11.1111 18.2778 11.1111 18.8889C11.1111 19.5 10.6111 20 10 20H2.22222V24.4444H10C10.6111 24.4444 11.1111 24.9444 11.1111 25.5556C11.1111 26.1667 10.6111 26.6667 10 26.6667H2.22222V31.1111C2.22222 32.3403 3.21736 33.3333 4.44444 33.3333H16.6667C17.2778 33.3333 17.7778 33.8333 17.7778 34.4444C17.7778 35.0556 17.2778 35.5556 16.6667 35.5556H4.44444C1.98958 35.5556 0 33.5625 0 31.1111V4.44444ZM10 5.55556C10 4.94167 10.5 4.44444 11.1111 4.44444C11.7222 4.44444 12.2222 4.94167 12.2222 5.55556V7.77778H14.4444C15.0556 7.77778 15.5556 8.27778 15.5556 8.88889C15.5556 9.5 15.0556 10 14.4444 10H12.2222V12.2222C12.2222 12.8333 11.7222 13.3333 11.1111 13.3333C10.5 13.3333 10 12.8333 10 12.2222V10H7.77778C7.16667 10 6.66667 9.5 6.66667 8.88889C6.66667 8.27778 7.16667 7.77778 7.77778 7.77778H10V5.55556ZM35.5556 18.8889C35.5556 21.9583 33.0694 24.4444 30 24.4444C26.9306 24.4444 24.4444 21.9583 24.4444 18.8889C24.4444 15.8194 26.9306 13.3333 30 13.3333C33.0694 13.3333 35.5556 15.8194 35.5556 18.8889ZM30 15.5556C28.1597 15.5556 26.6667 17.0486 26.6667 18.8889C26.6667 20.7292 28.1597 22.2222 30 22.2222C31.8403 22.2222 33.3333 20.7292 33.3333 18.8889C33.3333 17.0486 31.8403 15.5556 30 15.5556ZM33.5347 26.6667C37.1042 26.6667 40 29.5625 40 33.1319C40 34.4722 38.9167 35.5556 37.5764 35.5556H22.4236C21.0833 35.5556 20 34.4722 20 33.1319C20 29.5625 22.8958 26.6667 26.4653 26.6667H33.5347ZM22.4236 33.3333H37.5764C37.6875 33.3333 37.7778 33.2431 37.7778 33.1319C37.7778 30.7917 35.875 28.8889 33.5347 28.8889H26.4653C24.125 28.8889 22.2222 30.7917 22.2222 33.1319C22.2222 33.2431 22.3125 33.3333 22.4236 33.3333Z" fill="#2196F3"/>
</svg>
