<svg width="40" height="33" viewBox="0 0 40 33" fill="none" xmlns="http://www.w3.org/2000/svg">
<path d="M6 14.3383C6 13.2883 6.89375 12.3383 8 12.3383H10C11.1062 12.3383 12 13.2883 12 14.3383V16.3383C12 17.5008 11.1062 18.3383 10 18.3383H8C6.89375 18.3383 6 17.5008 6 16.3383V14.3383ZM10 14.3383H8V16.3383H10V14.3383ZM32 12.3383C33.1063 12.3383 34 13.2883 34 14.3383V16.3383C34 17.5008 33.1063 18.3383 32 18.3383H30C28.8937 18.3383 28 17.5008 28 16.3383V14.3383C28 13.2883 28.8937 12.3383 30 12.3383H32ZM30 16.3383H32V14.3383H30V16.3383ZM6 22.3945C6 21.2883 6.89375 20.3383 8 20.3383H10C11.1062 20.3383 12 21.2883 12 22.3945V26.3945C12 27.5008 11.1062 28.3945 10 28.3945H8C6.89375 28.3945 6 27.5008 6 26.3945V22.3945ZM10 22.3945H8V26.3945H10V22.3945ZM32 20.3383C33.1063 20.3383 34 21.2883 34 22.3945V26.3945C34 27.5008 33.1063 28.3945 32 28.3945H30C28.8937 28.3945 28 27.5008 28 26.3945V22.3945C28 21.2883 28.8937 20.3383 30 20.3383H32ZM30 26.3945H32V22.3945H30V26.3945ZM21 11.3383H21.5C22.05 11.3383 22.5 11.8445 22.5 12.3383C22.5 12.9445 22.05 13.3383 21.5 13.3383H20C19.45 13.3383 19 12.9445 19 12.3383V10.3383C19 9.84452 19.45 9.33827 20 9.33827C20.55 9.33827 21 9.84452 21 10.3383V11.3383ZM14 12.3383C14 9.02577 16.6313 6.33827 20 6.33827C23.3125 6.33827 26 9.02577 26 12.3383C26 15.707 23.3125 18.3383 20 18.3383C16.6313 18.3383 14 15.707 14 12.3383ZM20 16.3383C22.2062 16.3383 24 14.6008 24 12.3383C24 10.1883 22.2062 8.33827 20 8.33827C17.7938 8.33827 16 10.1883 16 12.3383C16 14.6008 17.7938 16.3383 20 16.3383ZM29.425 7.46327L36.7875 8.93202C38.6562 9.30702 40 10.9445 40 12.857V28.3945C40 30.6008 38.2062 32.3945 36 32.3945H4C1.79063 32.3945 0 30.6008 0 28.3945V12.857C0 10.9445 1.34563 9.30702 3.21563 8.93202L10.575 7.46327L19.3875 0.605141C19.6938 0.324328 20.25 0.324328 20.6125 0.605141L29.425 7.46327ZM24 24.3945V30.3945H36C37.1063 30.3945 38 29.5008 38 28.3945V12.857C38 11.9008 37.325 11.0258 36.3937 10.8383L28.8062 9.37577C28.65 9.34452 28.5063 9.28202 28.3875 9.18202L20 2.66139L11.6125 9.18202C11.4938 9.28202 11.35 9.34452 11.1938 9.37577L3.6075 10.8383C2.67313 11.0258 2 11.9008 2 12.857V28.3945C2 29.5008 2.89563 30.3945 4 30.3945H16V24.3945C16 22.1883 17.7938 20.3383 20 20.3383C22.2062 20.3383 24 22.1883 24 24.3945ZM22 30.3945V24.3945C22 23.2883 21.1063 22.3945 20 22.3945C18.8937 22.3945 18 23.2883 18 24.3945V30.3945H22Z" fill="#72AA7E"/>
</svg>
