<svg width="30" height="41" viewBox="0 0 30 41" fill="none" xmlns="http://www.w3.org/2000/svg">
<path d="M23.75 26.6445H13.75C13.0625 26.6445 12.5 27.207 12.5 27.8945C12.5 28.582 13.0591 29.1445 13.75 29.1445H23.75C24.4409 29.1445 25 28.5855 25 27.8945C25 27.2036 24.4375 26.6445 23.75 26.6445ZM23.75 19.1445H16.25C15.5625 19.1445 15 19.707 15 20.3945C15 21.082 15.5591 21.6445 16.25 21.6445H23.75C24.4375 21.6445 25 21.082 25 20.3945C25 19.707 24.4375 19.1445 23.75 19.1445ZM7.5 26.0195C6.46484 26.0195 5.625 26.8586 5.625 27.8945C5.625 28.9297 6.46484 29.7695 7.5 29.7695C8.53594 29.7695 9.375 28.9297 9.375 27.8945C9.375 26.8555 8.53906 26.0195 7.5 26.0195ZM25 5.39453C24.3091 5.39453 23.75 5.95359 23.75 6.64453C23.75 7.33547 24.3125 7.89453 25 7.89453C26.3781 7.89453 27.5 9.01484 27.5 10.3945V35.3945C27.5 36.7742 26.3781 37.8945 25 37.8945H5C3.62188 37.8945 2.5 36.7742 2.5 35.3945V10.3945C2.5 9.01484 3.62188 7.89453 5 7.89453C5.69094 7.89453 6.25 7.33547 6.25 6.64453C6.25 5.95359 5.69063 5.39453 5 5.39453C2.24219 5.39453 0 7.63828 0 10.3945V35.3945C0 38.1508 2.24219 40.3945 5 40.3945H25C27.7578 40.3945 30 38.1508 30 35.3945V10.3945C30 7.63828 27.7578 5.39453 25 5.39453ZM8.75 10.3945H21.25C21.9375 10.3945 22.5 9.83203 22.5 9.14453C22.5 8.45703 21.9375 7.89453 21.25 7.89453H19.3062C19.7344 7.15625 20 6.31016 20 5.39453C20 2.63281 17.7617 0.394531 15 0.394531C12.2383 0.394531 10 2.63281 10 5.39453C10 6.31016 10.264 7.15625 10.6935 7.89453H8.75C8.0625 7.89453 7.5 8.45703 7.5 9.14453C7.5 9.83203 8.0625 10.3945 8.75 10.3945ZM15 2.89453C16.3781 2.89453 17.5 4.01641 17.5 5.39453C17.5 6.77266 16.3781 7.89453 15 7.89453C13.6219 7.89453 12.5 6.77266 12.5 5.39453C12.5 4.01641 13.625 2.89453 15 2.89453ZM5.33203 18.3008C4.86328 18.8086 4.895 19.5969 5.40283 20.0656L8.11064 22.5656C8.35156 22.7852 8.65625 22.8945 8.96094 22.8945C9.2893 22.8945 9.61766 22.7652 9.86328 22.5088L14.6547 17.5087C15.1332 17.0107 15.1161 16.2197 14.6168 15.7416C14.12 15.2655 13.3293 15.2802 12.8504 15.7806L8.83594 19.8945L7.09687 18.2305C6.59297 17.7617 5.79844 17.7852 5.33203 18.3008Z" fill="#B85792"/>
</svg>
