<svg width="36" height="37" viewBox="0 0 36 37" fill="none" xmlns="http://www.w3.org/2000/svg">
<path d="M31.5 2.64453H20.25C19.0055 2.64453 18 3.65211 18 4.89453V5.00703C17.6344 4.9332 17.2617 4.89453 16.875 4.89453H15.75C15.75 2.40898 17.768 0.394531 20.25 0.394531H31.5C33.982 0.394531 36 2.40898 36 4.89453V31.8945C36 34.3766 33.982 36.3945 31.5 36.3945H21.375C21.8039 35.7406 22.2188 34.9742 22.3875 34.1445H31.5C32.7445 34.1445 33.75 33.1391 33.75 31.8945V4.89453C33.75 3.65211 32.7445 2.64453 31.5 2.64453ZM24.75 7.14453C24.75 6.52297 25.2563 6.01953 25.875 6.01953C26.4937 6.01953 27 6.52297 27 7.14453V9.39453H29.25C29.8687 9.39453 30.375 9.90078 30.375 10.5195C30.375 11.1383 29.8687 11.6445 29.25 11.6445H27V13.8945C27 14.5133 26.4937 15.0195 25.875 15.0195C25.2563 15.0195 24.75 14.5133 24.75 13.8945V11.6445H22.5C21.8813 11.6445 21.375 11.1383 21.375 10.5195C21.375 9.90078 21.8813 9.39453 22.5 9.39453H24.75V7.14453ZM22.5 20.6445H33.75V22.8945H22.5V20.6445ZM22.5 27.3945H33.75V29.6445H22.5V27.3945ZM9 13.8945C9 13.2758 9.50625 12.7695 10.125 12.7695C10.7437 12.7695 11.25 13.2758 11.25 13.8945V16.1445H13.5C14.1187 16.1445 14.625 16.6508 14.625 17.2695C14.625 17.8883 14.1187 18.3945 13.5 18.3945H11.25V20.6445C11.25 21.2633 10.7437 21.7695 10.125 21.7695C9.50625 21.7695 9 21.2633 9 20.6445V18.3945H6.75C6.13125 18.3945 5.625 17.8883 5.625 17.2695C5.625 16.6508 6.13125 16.1445 6.75 16.1445H9V13.8945ZM15.75 7.14453C18.232 7.14453 20.25 9.1625 20.25 11.6445V31.8945C20.25 34.3766 18.232 36.3945 15.75 36.3945H4.5C2.01445 36.3945 0 34.3766 0 31.8945V11.6445C0 9.1625 2.01445 7.14453 4.5 7.14453H15.75ZM4.5 9.39453C3.25758 9.39453 2.25 10.4 2.25 11.6445V25.1445H18V11.6445C18 10.4 16.9945 9.39453 15.75 9.39453H4.5ZM4.5 34.1445H15.75C16.9945 34.1445 18 33.1391 18 31.8945V27.3945H2.25V31.8945C2.25 33.1391 3.25758 34.1445 4.5 34.1445Z" fill="#009688"/>
</svg>
