<svg width="36" height="41" viewBox="0 0 36 41" fill="none" xmlns="http://www.w3.org/2000/svg">
<path d="M17.501 20.3957C23.0248 20.3957 27.5016 15.9181 27.5016 10.3951C27.5016 4.87214 23.0248 0.394531 17.501 0.394531C11.9773 0.394531 7.50044 4.87214 7.50044 10.3951C7.50044 15.9181 11.9773 20.3957 17.501 20.3957ZM17.501 2.89468C21.6372 2.89468 25.0015 6.25894 25.0015 10.3951C25.0015 14.5305 21.6372 17.8956 17.501 17.8956C13.3648 17.8956 10.0006 14.5282 10.0006 10.3951C10.0006 6.25894 13.368 2.89468 17.501 2.89468ZM21.4622 24.1459H13.5399C6.06364 24.1459 0 30.2088 0 37.6858C0 39.1812 1.21257 40.3945 2.70797 40.3945H32.2956C33.791 40.3969 35.002 39.1859 35.002 37.6858C35.002 30.2088 28.9392 24.1459 21.4622 24.1459ZM32.291 37.8967H2.70797C2.5939 37.8967 2.50015 37.803 2.50015 37.6858C2.50015 31.5995 7.45356 26.6461 13.5399 26.6461H21.4544C27.5485 26.6461 32.5019 31.5995 32.5019 37.6858C32.5019 37.803 32.4081 37.8967 32.291 37.8967Z" fill="#E85D67"/>
</svg>
